<svg width="18" height="17" viewBox="0 0 18 17" fill="none" xmlns="http://www.w3.org/2000/svg">
<path d="M17.4929 8.59986L16.297 6.71257L16.3223 4.51958L14.2727 3.44531L13.121 1.53354L10.7698 1.55709L8.74646 0.44165L6.72309 1.55713L4.37197 1.53354L3.22023 3.44534L1.17062 4.51961L1.19587 6.71261L0 8.59986L1.19587 10.4871L1.17059 12.6801L3.2202 13.7544L4.37193 15.6662L6.72309 15.6426L8.74646 16.7581L10.7698 15.6426L13.121 15.6662L14.2727 13.7544L16.3223 12.6802L16.297 10.4871L17.4929 8.59986ZM13.5182 13.0507L12.5235 14.7019L10.494 14.6816L8.74646 15.6451L6.99888 14.6816L4.96942 14.7019L3.97465 13.0507L2.20438 12.1229L2.22614 10.2299L1.19328 8.59986L2.22618 6.96981L2.20442 5.07685L3.97472 4.14902L4.96942 2.49777L6.99884 2.51807L8.74646 1.55467L10.494 2.51811L12.5235 2.49781L13.5182 4.14902L15.2885 5.07688L15.2668 6.96981L16.2996 8.59986L15.2667 10.2299L15.2885 12.1229L13.5182 13.0507Z" fill="#FEFE2C"/>
<path d="M5.35492 7.22485V8.47418L4.23458 7.22485H3.41748V9.97491H4.3862V8.72558L5.50655 9.97491H6.32361V7.22485H5.35492Z" fill="#FEFE2C"/>
<path d="M7.69687 9.27563V8.91415H8.94358V8.24629H7.69687V7.92413H9.11625V7.22485H6.71973V9.97491H9.17102V9.27563H7.69687Z" fill="#FEFE2C"/>
<path d="M13.2819 7.22485L12.7385 8.80809L12.2247 7.22485H11.3107L10.7673 8.78843L10.2535 7.22485H9.22998L10.1734 9.97491H11.2391L11.7403 8.50557L12.2163 9.97491H13.2819L14.2253 7.22485H13.2819Z" fill="#FEFE2C"/>
<path d="M11.2617 3.99891C10.4781 3.62555 9.63189 3.43622 8.74638 3.43622C7.8609 3.43622 7.01465 3.62551 6.23109 3.99891C5.48422 4.35481 4.82256 4.87435 4.31763 5.50139L5.13898 6.07689C6.00006 5.00769 7.3149 4.39445 8.74642 4.39445C10.1779 4.39445 11.4927 5.00766 12.3538 6.07689L13.1752 5.50139C12.6702 4.87435 12.0085 4.35481 11.2617 3.99891Z" fill="#FEFE2C"/>
<path d="M12.3538 11.1228C11.4927 12.1921 10.1779 12.8053 8.74642 12.8053C7.31493 12.8053 6.00006 12.1921 5.13901 11.1228L4.31763 11.6983C4.8226 12.3254 5.48426 12.8449 6.23112 13.2008C7.01465 13.5742 7.8609 13.7635 8.74642 13.7635C9.63189 13.7635 10.4781 13.5742 11.2617 13.2008C12.0085 12.8449 12.6702 12.3253 13.1752 11.6983L12.3538 11.1228Z" fill="#FEFE2C"/>
</svg>
