<svg width="15" height="17" viewBox="0 0 15 17" fill="none" xmlns="http://www.w3.org/2000/svg">
<path d="M7.13571 3.18338C4.82782 3.18338 2.9502 4.92866 2.9502 7.07381C3.18012 12.235 11.0921 12.2335 11.3212 7.07378C11.3212 4.92866 9.4436 3.18338 7.13571 3.18338V3.18338ZM7.13571 9.99163C5.40479 9.99163 3.99657 8.68273 3.99657 7.07381C4.16905 3.20293 10.103 3.20406 10.2748 7.07384C10.2748 8.68273 8.86663 9.99163 7.13571 9.99163V9.99163Z" fill="#FEFE2C"/>
<path d="M6.61206 5.61813H7.65857V8.53596H6.61206V5.61813Z" fill="#FEFE2C"/>
<path d="M14.2704 7.07379L13.5749 5.88316L13.7292 4.53487L12.5942 3.68345L12.1807 2.38404L10.7828 1.99973L9.86672 0.944683L8.41619 1.08814L7.13524 0.44165L5.85426 1.08817L4.40373 0.944715L3.48769 1.99977L2.08976 2.38408L1.6763 3.68348L0.541223 4.5349L0.69553 5.88319L0 7.07383L0.69553 8.26453L0.541223 9.61275L1.67627 10.4642L2.08973 11.7636L2.42649 11.8561V16.7601L5.04244 15.5443L7.13521 16.5169L9.22797 15.5443L11.8439 16.7601V11.8561L12.1806 11.7636L12.5941 10.4642L13.7292 9.61272L13.5749 8.26449L14.2704 7.07379ZM3.47291 15.1863V12.1438L3.48773 12.1478L4.40377 13.2029L5.8543 13.0594L6.61209 13.4419V15.1863L5.04251 14.4569L3.47291 15.1863ZM10.7976 15.1863L9.228 14.4569L7.65843 15.1863V13.4419L8.41622 13.0594L9.86675 13.2029L10.7828 12.1479L10.7976 12.1438V15.1863H10.7976ZM12.6284 9.18866L11.6832 9.89766L11.3385 10.9808L10.1732 11.3012L9.41049 12.1797L8.20304 12.0603L7.13524 12.5992L6.06744 12.0603L4.85999 12.1797L4.09725 11.3011L2.93193 10.9808L2.58728 9.89766L1.64209 9.18866L1.77058 8.06637L1.19071 7.07383L1.77058 6.08135L1.64209 4.95899L2.58732 4.25006L2.93196 3.1669L4.09725 2.84655L4.85999 1.96796L6.06744 2.0874L7.13524 1.54841L8.20304 2.0874L9.41049 1.96796L10.1732 2.84655L11.3386 3.1669L11.6832 4.25006L12.6284 4.95899L12.4999 6.08135L13.0798 7.07383L12.4999 8.06637L12.6284 9.18866Z" fill="#FEFE2C"/>
</svg>
