<svg width="14" height="14" viewBox="0 0 14 14" fill="none" xmlns="http://www.w3.org/2000/svg">
<g>
	<path fill-rule="evenodd" clip-rule="evenodd" d="M4.72363 7C4.72363 8.24444 5.74233 9.25697 7.00006 9.25697C8.25209 9.25697 9.27079 8.24444 9.27079 7C9.27079 5.7499 8.25209 4.73737 7.00006 4.73737C5.74233 4.73737 4.72363 5.7499 4.72363 7ZM10.3464 3.52687C11.3424 4.29616 12.1903 5.42182 12.7993 6.8303C12.8448 6.93778 12.8448 7.06222 12.7993 7.16404C11.5814 9.98101 9.41309 11.6667 7.00008 11.6667H6.99439C4.58707 11.6667 2.41878 9.98101 1.20089 7.16404C1.15537 7.06222 1.15537 6.93778 1.20089 6.8303C2.41878 4.01333 4.58707 2.33333 6.99439 2.33333H7.00008C8.20659 2.33333 9.35049 2.75192 10.3464 3.52687ZM7.00073 8.40724C7.7804 8.40724 8.4178 7.7737 8.4178 6.99875C8.4178 6.21815 7.7804 5.58461 7.00073 5.58461C6.93244 5.58461 6.86414 5.59027 6.80154 5.60158C6.77878 6.2238 6.26658 6.72158 5.63488 6.72158H5.60642C5.58935 6.81209 5.57797 6.90259 5.57797 6.99875C5.57797 7.7737 6.21536 8.40724 7.00073 8.40724Z" fill="#ff6a1b"/>
</g>
</svg>